HIERARCHY
ROOT joint_Root
{
	OFFSET 0.0 0.0 0.0
	CHANNELS 6 Xposition Yposition Zposition Zrotation Xrotation Yrotation 
	JOINT Hips
	{
		OFFSET -0.726466 93.3139 -2.00062
		CHANNELS 6 Xposition Yposition Zposition Zrotation Xrotation Yrotation 
		JOINT Spine
		{
			OFFSET 15.7357 0.0 0.0
			CHANNELS 6 Xposition Yposition Zposition Zrotation Xrotation Yrotation 
			JOINT Chest
			{
				OFFSET 8.98455 -0.406207 0.0
				CHANNELS 6 Xposition Yposition Zposition Zrotation Xrotation Yrotation 
				JOINT Neck
				{
					OFFSET 16.3773 0.0 0.0
					CHANNELS 6 Xposition Yposition Zposition Zrotation Xrotation Yrotation 
					JOINT Head
					{
						OFFSET 6.45672 0.0 0.0
						CHANNELS 6 Xposition Yposition Zposition Zrotation Xrotation Yrotation 
						End Site
						{
							OFFSET 0.0 0.0 0.0
						}
					}
				}
				JOINT Shoulder_L
				{
					OFFSET 12.9942 -0.242716 4.98039
					CHANNELS 6 Xposition Yposition Zposition Zrotation Xrotation Yrotation 
					JOINT UpperArm_L
					{
						OFFSET 5.34809 0.0 0.0
						CHANNELS 6 Xposition Yposition Zposition Zrotation Xrotation Yrotation 
						JOINT LowerArm_L
						{
							OFFSET 24.3286 1.87007e-05 0.0
							CHANNELS 6 Xposition Yposition Zposition Zrotation Xrotation Yrotation 
							JOINT Hand_L
							{
								OFFSET 22.2916 0.0 0.0
								CHANNELS 6 Xposition Yposition Zposition Zrotation Xrotation Yrotation 
								End Site
								{
									OFFSET 0.0 0.0 0.0
								}
							}
						}
					}
				}
				JOINT Shoulder_R
				{
					OFFSET 12.9945 -0.242716 -4.98039
					CHANNELS 6 Xposition Yposition Zposition Zrotation Xrotation Yrotation 
					JOINT UpperArm_R
					{
						OFFSET -5.34813 0.0 0.0
						CHANNELS 6 Xposition Yposition Zposition Zrotation Xrotation Yrotation 
						JOINT LowerArm_R
						{
							OFFSET -24.3289 0.000322201 0.0
							CHANNELS 6 Xposition Yposition Zposition Zrotation Xrotation Yrotation 
							JOINT Hand_R
							{
								OFFSET -22.2915 -0.000108084 0.0
								CHANNELS 6 Xposition Yposition Zposition Zrotation Xrotation Yrotation 
								End Site
								{
									OFFSET 0.0 0.0 0.0
								}
							}
						}
					}
				}
			}
		}
		JOINT UpperLeg_L
		{
			OFFSET -2.19248 -6.46944 0.0
			CHANNELS 6 Xposition Yposition Zposition Zrotation Xrotation Yrotation 
			JOINT LowerLeg_L
			{
				OFFSET 39.0811 0.0 -1.23785e-05
				CHANNELS 6 Xposition Yposition Zposition Zrotation Xrotation Yrotation 
				JOINT Foot_L
				{
					OFFSET 40.9854 0.0 -1.26872e-05
					CHANNELS 6 Xposition Yposition Zposition Zrotation Xrotation Yrotation 
					JOINT Toes_L
					{
						OFFSET 11.7543 0.0 0.0
						CHANNELS 6 Xposition Yposition Zposition Zrotation Xrotation Yrotation 
						End Site
						{
							OFFSET 0.0 0.0 0.0
						}
					}
				}
			}
		}
		JOINT UpperLeg_R
		{
			OFFSET -2.19251 6.46944 0.0
			CHANNELS 6 Xposition Yposition Zposition Zrotation Xrotation Yrotation 
			JOINT LowerLeg_R
			{
				OFFSET -39.0811 -0.00228153 -0.0401928
				CHANNELS 6 Xposition Yposition Zposition Zrotation Xrotation Yrotation 
				JOINT Foot_R
				{
					OFFSET -40.9854 0.0 0.0
					CHANNELS 6 Xposition Yposition Zposition Zrotation Xrotation Yrotation 
					JOINT Toes_R
					{
						OFFSET -11.7543 0.0 0.0
						CHANNELS 6 Xposition Yposition Zposition Zrotation Xrotation Yrotation 
						End Site
						{
							OFFSET 0.0 0.0 0.0
						}
					}
				}
			}
		}
	}
}
MOTION
Frames:	4
Frame Time:	0.0333333
0.000000 0.000000 0.000000 0.000000 0.000000 -0.000000 -1.295190 92.345000 -1.222940 88.202800 -1.820070 3.550620 15.735700 0.000005 -0.000001 74.921000 85.655200 -73.165000 8.984550 -0.406207 -0.000000 0.664042 -2.368630 3.523610 16.377300 -0.000001 -0.000001 2.924210 -2.368550 -0.745008 6.456720 -0.000001 -0.000000 5.857110 -1.988760 0.744965 12.994200 -0.242716 4.980390 -87.857800 -6.133990 -70.706600 5.348090 -0.000007 -0.000001 -81.459700 -42.234100 -78.247500 24.328600 0.000019 0.000005 -9.389870 -4.054010 -66.866300 22.291600 -0.000001 0.000005 41.008400 5.546620 -8.546040 12.994500 -0.242716 -4.980390 88.326100 5.262740 -72.328400 -5.348130 -0.000001 -0.000004 -64.492000 36.757200 -15.876900 -24.328900 0.000322 -0.000009 1.868230 6.193440 -16.831200 -22.291500 -0.000108 -0.000004 7.203100 5.391060 -2.649140 -2.192480 -6.469440 -0.000000 -175.265000 -7.989540 -2.927640 39.081100 -0.000007 -0.000012 -0.104638 0.253248 22.449700 40.985400 -0.000006 -0.000013 -0.711175 3.002070 -66.011600 11.754300 -0.000000 0.000003 -0.000031 -0.000373 -16.592100 -2.192510 6.469440 -0.000001 -179.997000 14.681700 179.982000 -39.081100 -0.002282 -0.040193 -0.030600 0.098454 19.011700 -40.985400 0.000008 0.000006 3.897350 6.815560 -65.962200 -11.754300 -0.000006 -0.000006 -0.005168 -0.063078 -19.139700
0.000000 0.000000 0.000000 0.000000 0.000000 -0.000000 -1.324210 92.339000 -1.209920 88.227500 -1.501630 3.577540 15.735700 0.000005 -0.000001 75.615100 85.641700 -73.972600 8.984550 -0.406207 -0.000000 0.712667 -2.265790 3.296940 16.377300 -0.000001 -0.000001 2.801040 -2.416040 -0.733211 6.456720 -0.000001 -0.000000 5.750760 -2.115800 0.916201 12.994200 -0.242716 4.980390 -87.996000 -5.769690 -70.809200 5.348090 -0.000007 -0.000001 -74.083900 -41.377800 -73.255400 24.328600 0.000019 0.000005 -4.987180 -1.557160 -72.730100 22.291600 -0.000001 0.000005 41.626700 5.562220 -9.297900 12.994500 -0.242716 -4.980390 88.342300 5.235580 -72.403600 -5.348130 -0.000001 -0.000004 -64.901800 36.656000 -15.414800 -24.328900 0.000322 -0.000009 1.842300 6.265620 -16.430400 -22.291500 -0.000108 -0.000004 7.148320 5.389620 -2.603070 -2.192480 -6.469440 -0.000000 -175.274000 -7.736620 -2.959180 39.081100 -0.000007 -0.000012 -0.106626 0.257680 22.479500 40.985400 -0.000006 -0.000013 -0.721522 3.076330 -66.004300 11.754300 -0.000000 0.000003 -0.000032 -0.000382 -16.592500 -2.192510 6.469440 -0.000001 179.967000 14.887400 -179.958000 -39.081100 -0.002282 -0.040193 -0.032644 0.104314 19.023900 -40.985400 0.000008 0.000006 3.844150 6.729640 -65.999000 -11.754300 -0.000006 -0.000006 -0.005299 -0.064330 -19.190800
0.000000 0.000000 0.000000 0.000000 0.000000 -0.000000 -1.350070 92.343800 -1.211350 88.233600 -1.160700 3.554400 15.735700 0.000005 -0.000001 76.368500 85.668800 -74.829000 8.984550 -0.406207 -0.000000 0.683573 -2.135910 3.089660 16.377300 -0.000001 -0.000001 2.759750 -2.391950 -0.800521 6.456720 -0.000001 -0.000000 5.749870 -2.212140 0.985414 12.994200 -0.242716 4.980390 -88.080800 -5.553470 -70.901200 5.348090 -0.000007 -0.000001 -65.741500 -39.753400 -68.028800 24.328600 0.000019 0.000005 -0.332937 -0.064886 -79.448600 22.291600 -0.000001 0.000005 41.444800 5.577210 -10.065800 12.994500 -0.242716 -4.980390 88.377800 5.148480 -72.484600 -5.348130 -0.000001 -0.000004 -65.252000 36.759100 -15.009000 -24.328900 0.000322 -0.000009 1.845030 6.540540 -15.799600 -22.291500 -0.000108 -0.000004 7.054080 5.386670 -2.508970 -2.192480 -6.469440 -0.000000 -175.282000 -7.508240 -3.026090 39.081100 -0.000007 -0.000012 -0.105539 0.255307 22.459300 40.985400 -0.000006 -0.000013 -0.712762 3.187230 -65.963700 11.754300 -0.000000 0.000003 -0.000031 -0.000375 -16.592200 -2.192510 6.469440 -0.000001 179.992000 15.064000 -179.926000 -39.081100 -0.002282 -0.040193 -0.030198 0.097545 18.965000 -40.985400 0.000008 0.000006 3.909370 6.569140 -66.008600 -11.754300 -0.000006 -0.000006 -0.005326 -0.064583 -19.201000
0.000000 0.000000 0.000000 0.000000 0.000000 -0.000000 -1.367400 92.337300 -1.191890 88.244700 -0.856487 3.559190 15.735700 0.000005 -0.000001 76.736100 85.692800 -75.272000 8.984550 -0.406207 -0.000000 0.647308 -2.066710 2.937950 16.377300 -0.000001 -0.000001 2.731620 -2.299380 -0.953917 6.456720 -0.000001 -0.000000 5.924050 -2.151880 0.858127 12.994200 -0.242716 4.980390 -88.118500 -5.475050 -71.001700 5.348090 -0.000007 -0.000001 -56.572100 -37.573100 -62.815000 24.328600 0.000019 0.000005 4.794290 0.314626 -86.213200 22.291600 -0.000001 0.000005 41.218800 5.589450 -10.731200 12.994500 -0.242716 -4.980390 88.427100 5.029020 -72.607400 -5.348130 -0.000001 -0.000004 -65.444900 37.001600 -14.844800 -24.328900 0.000322 -0.000009 1.809340 6.802170 -14.942000 -22.291500 -0.000108 -0.000004 7.058610 5.385730 -2.478990 -2.192480 -6.469440 -0.000000 -175.289000 -7.330230 -3.080870 39.081100 -0.000007 -0.000012 -0.105934 0.255672 22.506100 40.985400 -0.000006 -0.000013 -0.697841 3.299380 -65.971000 11.754300 -0.000000 0.000003 -0.000032 -0.000387 -16.592700 -2.192510 6.469440 -0.000001 179.977000 15.320000 -179.901000 -39.081100 -0.002282 -0.040193 -0.030237 0.097536 18.987500 -40.985400 0.000008 0.000006 3.899110 6.487010 -66.049000 -11.754300 -0.000006 -0.000006 -0.005378 -0.065077 -19.221200
